# xmcd CD database file
#
# Track frame offsets:
#	150
#	25423
#	48599
#	69131
#	86465
#	100640
#	120855
#	139167
#	157429
#
# Disc length: 2444 seconds
#
# Revision: 0
# Processed by: cddbd v1.5.1PL0 Copyright (c) Steve Scherf et al.
# Submitted via: CDex 1.51
#
DISCID=6f098a09
DTITLE=VINIDILE - CIRCULATING BREATH
DYEAR=2002
DGENRE=Ethnic
TTITLE0=Another Water
TTITLE1="Can U feel these grand swells"
TTITLE2=Vamp me
TTITLE3=BetaMAX
TTITLE4=Cosmic Rays
TTITLE5=NoWhere
TTITLE6=SetUP yourSELF
TTITLE7=Holy+Dog
TTITLE8=沈ミユク碧
EXTD=YEAR: 2002
EXTT0=
EXTT1=
EXTT2=
EXTT3=
EXTT4=
EXTT5=
EXTT6=
EXTT7=
EXTT8=
PLAYORDER=
